# xmcd
#
# Track frame offsets: 
#        150
#        14617
#        29296
#        45475
#        65371
#        84043
#        98716
#        119593
#        138860
#        163146
#        181651
#        196870
#
# Disc length: 2674 seconds
#
# Revision: 2
# Processed by: cddbd v1.5.2PL0 Copyright (c) Steve Scherf et al.
# Submitted via: ExactAudioCopyFreeDBPlugin 1.0
#
DISCID=900a700c
DTITLE=Big Daddy Wilson - Deep In My Soul
DYEAR=2019
DGENRE=Blues
TTITLE0=I Know
TTITLE1=Ain't Got No Money
TTITLE2=Mississippi Me
TTITLE3=Tripping On You
TTITLE4=I Got Plenty
TTITLE5=Hold On Your Love
TTITLE6=Deep In My Soul
TTITLE7=I'm Walking
TTITLE8=Crazy World
TTITLE9=Redhead Stepchild
TTITLE10=Voodoo
TTITLE11=Couldn't Keep It To Myself
EXTD=
EXTT0=
EXTT1=
EXTT2=
EXTT3=
EXTT4=
EXTT5=
EXTT6=
EXTT7=
EXTT8=
EXTT9=
EXTT10=
EXTT11=
PLAYORDER=
